<svg width="32" height="29" viewBox="0 0 32 29" fill="none" xmlns="http://www.w3.org/2000/svg">
<path d="M23.1103 0.344727C21.6494 0.344981 20.2149 0.734055 18.9542 1.47199C17.6934 2.20993 16.6517 3.27015 15.9362 4.54376C15.2204 3.26985 14.1785 2.20944 12.9173 1.47148C11.6561 0.733521 10.2212 0.344619 8.76 0.344727C6.5221 0.465591 4.41695 1.44457 2.88246 3.07801C1.34796 4.71145 0.502274 6.8736 0.521311 9.11468C0.521311 20.543 15.9362 28.5161 15.9362 28.5161C15.9362 28.5161 31.351 20.5471 31.351 9.11468C31.37 6.87327 30.5241 4.71083 28.9891 3.07734C27.4542 1.44384 25.3486 0.465083 23.1103 0.344727V0.344727Z" fill="#6F1423"/>
</svg>
