<svg width="35" height="35" viewBox="0 0 35 35" fill="none" xmlns="http://www.w3.org/2000/svg">
<path d="M17.3207 0.552246C12.8443 0.552246 8.55111 2.33055 5.38581 5.49585C2.22051 8.66115 0.442383 12.9542 0.442383 17.4306C0.442383 21.907 2.22051 26.2001 5.38581 29.3654C8.55111 32.5307 12.8443 34.3089 17.3207 34.3089C21.7971 34.3089 26.0902 32.5307 29.2555 29.3654C32.4208 26.2001 34.199 21.907 34.199 17.4306C34.199 12.9542 32.4208 8.66115 29.2555 5.49585C26.0902 2.33055 21.7971 0.552246 17.3207 0.552246ZM23.6336 12.4376L21.2318 20.614C21.1819 20.7848 21.0898 20.9403 20.9641 21.0662C20.8385 21.192 20.6832 21.2843 20.5126 21.3345L12.3289 23.7434C12.1444 23.7978 11.949 23.8012 11.7627 23.7531C11.5765 23.7051 11.4067 23.6074 11.2716 23.4705C11.1364 23.3336 11.0409 23.1626 10.9952 22.9757C10.9496 22.7889 10.9555 22.5932 11.0123 22.4094L13.5121 14.3183C13.5631 14.153 13.6536 14.0027 13.7759 13.8803C13.8983 13.758 14.0489 13.6674 14.2143 13.6164L22.2996 11.1235C22.483 11.067 22.6782 11.0612 22.8647 11.1067C23.0513 11.1523 23.2219 11.2475 23.3587 11.3822C23.4954 11.5169 23.5932 11.6862 23.6416 11.872C23.69 12.0579 23.6873 12.2533 23.6336 12.4376Z" fill="#A4777E"/>
</svg>
